# xmcd CD database file
#
# Track frame offsets:
#	150
#	21397
#	35094
#	44695
#	57814
#	80068
#	92488
#	105573
#	121744
#	141167
#	156415
#	179276
#	201767
#	216896
#	232132
#
# Disc length: 3271 seconds
#
# Revision: 0
# Processed by: cddbd v1.5.2PL0 Copyright (c) Steve Scherf et al.
# Submitted via: CDex 1.51
#
DISCID=d80cc50f
DTITLE=Various Artist - WDVX Blue Plate Special (Volume 1)
DYEAR=2011
DGENRE=Country
TTITLE0=Christabel and the Jons - Back to Tennessee
TTITLE1=Grasstowne - Dixie Flyer
TTITLE2=Scott Miller - Ciderville Saturday Night
TTITLE3=The Everybody Fields - Wurlitzer Prize
TTITLE4=Erick Baker - Stay Awhile
TTITLE5=Bill Mize - What'd I Say
TTITLE6=Mic Harrison and the High Score - Sooner or Later
TTITLE7=Cutthroat Shamrock - Deep Black Hole
TTITLE8=Carrie Hassler and Hard Rain - Devil's Den
TTITLE9=Jeff Barbra - My God
TTITLE10=Apartment Number Nine - Slow Dream
TTITLE11=Jennifer Niceley - Night Walk
TTITLE12=The Bearded - Lazy Bones
TTITLE13=Tennessee Sheiks - Lady Be Good
TTITLE14=Blue Moon Rising - Moonshine Hard Times
EXTD=YEAR: 2011
EXTT0=
EXTT1=
EXTT2=
EXTT3=
EXTT4=
EXTT5=
EXTT6=
EXTT7=
EXTT8=
EXTT9=
EXTT10=
EXTT11=
EXTT12=
EXTT13=
EXTT14=
PLAYORDER=
